<svg width="400" height="300" xmlns="http://www.w3.org/2000/svg">
  <defs>
    <linearGradient id="dbBg" x1="0%" y1="0%" x2="100%" y2="100%">
      <stop offset="0%" style="stop-color:#27ae60;stop-opacity:1" />
      <stop offset="100%" style="stop-color:#2ecc71;stop-opacity:1" />
    </linearGradient>
  </defs>
  <rect width="400" height="300" fill="url(#dbBg)"/>
  <!-- Серверная стойка -->
  <rect x="150" y="60" width="100" height="180" fill="#2c3e50" rx="5"/>
  <!-- Серверы в стойке -->
  <rect x="155" y="70" width="90" height="25" fill="#34495e" rx="2"/>
  <rect x="155" y="100" width="90" height="25" fill="#34495e" rx="2"/>
  <rect x="155" y="130" width="90" height="25" fill="#34495e" rx="2"/>
  <rect x="155" y="160" width="90" height="25" fill="#34495e" rx="2"/>
  <rect x="155" y="190" width="90" height="25" fill="#34495e" rx="2"/>
  <rect x="155" y="220" width="90" height="25" fill="#34495e" rx="2"/>
  <!-- Индикаторы -->
  <circle cx="170" cy="82" r="3" fill="#27ae60"/>
  <circle cx="170" cy="112" r="3" fill="#e74c3c"/>
  <circle cx="170" cy="142" r="3" fill="#f39c12"/>
  <circle cx="170" cy="172" r="3" fill="#27ae60"/>
  <circle cx="170" cy="202" r="3" fill="#e74c3c"/>
  <circle cx="170" cy="232" r="3" fill="#f39c12"/>
  <!-- Кабели -->
  <line x1="100" y1="100" x2="155" y2="100" stroke="#7f8c8d" stroke-width="3"/>
  <line x1="100" y1="130" x2="155" y2="130" stroke="#7f8c8d" stroke-width="3"/>
  <line x1="100" y1="160" x2="155" y2="160" stroke="#7f8c8d" stroke-width="3"/>
  <text x="200" y="280" text-anchor="middle" fill="white" font-family="Arial" font-size="16" font-weight="bold">Database Servers</text>
</svg>