<svg width="400" height="300" xmlns="http://www.w3.org/2000/svg">
  <defs>
    <linearGradient id="devopsBg" x1="0%" y1="0%" x2="100%" y2="100%">
      <stop offset="0%" style="stop-color:#8e44ad;stop-opacity:1" />
      <stop offset="100%" style="stop-color:#9b59b6;stop-opacity:1" />
    </linearGradient>
  </defs>
  <rect width="400" height="300" fill="url(#devopsBg)"/>
  <!-- Центральный сервер -->
  <rect x="180" y="80" width="40" height="60" fill="#2c3e50" rx="5"/>
  <rect x="185" y="85" width="30" height="50" fill="#1a1a1a" rx="3"/>
  <circle cx="200" cy="100" r="3" fill="#27ae60"/>
  <circle cx="200" cy="110" r="3" fill="#e74c3c"/>
  <circle cx="200" cy="120" r="3" fill="#f39c12"/>
  <!-- Мониторы -->
  <rect x="80" y="100" width="60" height="40" fill="#34495e" rx="5"/>
  <rect x="85" y="105" width="50" height="30" fill="#1a1a1a" rx="3"/>
  <rect x="90" y="110" width="40" height="8" fill="#3498db" rx="2"/>
  <rect x="90" y="125" width="30" height="6" fill="#e74c3c" rx="1"/>
  <rect x="90" y="135" width="35" height="6" fill="#f39c12" rx="1"/>
  <!-- Подставка -->
  <rect x="105" y="140" width="10" height="8" fill="#7f8c8d"/>
  <rect x="100" y="148" width="20" height="3" fill="#7f8c8d" rx="1"/>
  <!-- Второй монитор -->
  <rect x="260" y="100" width="60" height="40" fill="#34495e" rx="5"/>
  <rect x="265" y="105" width="50" height="30" fill="#1a1a1a" rx="3"/>
  <rect x="270" y="110" width="40" height="8" fill="#9b59b6" rx="2"/>
  <rect x="270" y="125" width="30" height="6" fill="#e67e22" rx="1"/>
  <rect x="270" y="135" width="35" height="6" fill="#16a085" rx="1"/>
  <!-- Подставка -->
  <rect x="285" y="140" width="10" height="8" fill="#7f8c8d"/>
  <rect x="280" y="148" width="20" height="3" fill="#7f8c8d" rx="1"/>
  <!-- Кабели -->
  <line x1="140" y1="120" x2="180" y2="110" stroke="#7f8c8d" stroke-width="2"/>
  <line x1="260" y1="120" x2="220" y2="110" stroke="#7f8c8d" stroke-width="2"/>
  <text x="200" y="250" text-anchor="middle" fill="white" font-family="Arial" font-size="16" font-weight="bold">DevOps Infrastructure</text>
</svg>