<svg width="400" height="300" xmlns="http://www.w3.org/2000/svg">
  <defs>
    <linearGradient id="bg4" x1="0%" y1="0%" x2="100%" y2="100%">
      <stop offset="0%" style="stop-color:#8e44ad;stop-opacity:1" />
      <stop offset="100%" style="stop-color:#9b59b6;stop-opacity:1" />
    </linearGradient>
  </defs>
  <rect width="400" height="300" fill="url(#bg4)"/>
  <rect x="50" y="50" width="300" height="200" fill="#1a1a1a" rx="10"/>
  <rect x="70" y="70" width="60" height="40" fill="#e74c3c" rx="5"/>
  <rect x="140" y="70" width="60" height="40" fill="#f39c12" rx="5"/>
  <rect x="210" y="70" width="60" height="40" fill="#27ae60" rx="5"/>
  <rect x="280" y="70" width="60" height="40" fill="#3498db" rx="5"/>
  <rect x="70" y="120" width="60" height="40" fill="#9b59b6" rx="5"/>
  <rect x="140" y="120" width="60" height="40" fill="#e67e22" rx="5"/>
  <rect x="210" y="120" width="60" height="40" fill="#16a085" rx="5"/>
  <rect x="280" y="120" width="60" height="40" fill="#2c3e50" rx="5"/>
  <rect x="70" y="170" width="270" height="30" fill="#34495e" rx="5"/>
  <text x="200" y="250" text-anchor="middle" fill="white" font-family="Arial" font-size="16" font-weight="bold">DevOps & Automation</text>
</svg>


